<svg xmlns="http://www.w3.org/2000/svg"><symbol viewBox="0 0 32.2 31.1" id="collection"><title>collection</title><path stroke="#989193" stroke-width="2" stroke-miterlimit="10" fill="none" d="M12.9 19.7l-9.5-5.4L12.9 9l9.4 5.3z"/><path stroke="#989193" stroke-width="2" stroke-linecap="square" stroke-miterlimit="10" fill="none" d="M24.4 20.3l-11.5 6.5-11.5-6.5"/><text transform="translate(25.084 17.001)" fill="#989193" font-family="&apos;Apercu&apos;" font-size="20.001">&#x2075;</text></symbol><symbol viewBox="0 0 71 71" id="logo"><title>logo</title><path fill="#989193" d="M35.5 1.9C54 1.9 69.1 17 69.1 35.5S54 69.1 35.5 69.1 1.9 54 1.9 35.5 17 1.9 35.5 1.9m0-1.9C15.9 0 0 15.9 0 35.5S15.9 71 35.5 71 71 55.1 71 35.5 55.1 0 35.5 0zM23.4 31.9c-.7-1.5-1.7-2.2-3-2.2-1.6 0-2.7.9-2.7 2.3 0 .7.3 1.3.8 1.6.6.3 1.4.6 2.6 1 1.1.3 1.7.4 2.5.9 1.2.6 1.7 1.4 1.8 3 0 3.2-1.9 4.8-4.9 4.8-2.9 0-5-1.6-5.6-4.4l1.7-.7c.6 2.2 1.9 3.3 3.8 3.3s3.1-.9 3.1-2.7c0-.6-.3-1.1-.5-1.4-.1-.1-.4-.3-.7-.4-.7-.3-1-.4-2.1-.7-1-.3-1.6-.4-2.4-.8-1.2-.6-1.8-1.6-1.9-3.3 0-1.2.4-2.2 1.2-3 .8-.8 1.9-1.2 3.3-1.2 2.4 0 4 1.4 4.7 3.2l-1.7.7zm18.4 6.7c-.3 1.3-1 2.5-2 3.3-1 .8-2.3 1.2-3.8 1.2-1.9 0-3.5-.7-4.8-2-1.3-1.3-2-3.2-2-5.6s.7-4.3 2-5.6c1.3-1.3 2.9-2 4.8-2 1.5 0 2.8.4 3.8 1.3s1.7 1.9 2 3.3L40 33c-.7-2.2-2-3.3-4-3.3-1.4 0-2.6.5-3.5 1.5-.9 1-1.3 2.5-1.3 4.3 0 1.9.4 3.3 1.3 4.3s2 1.5 3.5 1.5c2 0 3.3-1.1 4-3.3l1.8.6zm5-10.6h5c2.6 0 4.2 1.4 4.2 3.8 0 1.3-.7 2.4-1.7 2.9 1.5.6 2.4 1.9 2.4 3.7 0 2.8-1.7 4.4-4.6 4.4h-5.3V28zm1.9 1.8v4.3h3c1.5 0 2.4-.7 2.4-2.1s-.9-2.2-2.4-2.2h-3zm0 6.1v5.3h3.2c2 0 3-.9 3-2.6 0-1.7-1-2.6-3-2.6h-3.2z"/></symbol></svg>